massMuscle_states
version=1
nRows=23
nColumns=15
inDegrees=yes

# SIMM Motion File Header:
name massMuscle_states
datacolumns 15
datarows 23
otherdata 1
range 0.00000000 0.02834091
endheader
time	massToGround_xRotation	massToGround_yRotation	massToGround_zRotation	massToGround_xTranslation	massToGround_yTranslation	massToGround_zTranslation	massToGround_xRotation_u	massToGround_yRotation_u	massToGround_zRotation_u	massToGround_xTranslation_u	massToGround_yTranslation_u	massToGround_zTranslation_u	muscle.activation	muscle.fiber_length
      0.00000000	      0.00000000	      0.00000000	      0.00000000	      0.00000000	      0.00000000	      0.00000000	      0.00000000	      0.00000000	      0.00000000	      0.00000000	      0.00000000	      0.00000000	      0.05000000	      0.39622362
      0.00064078	      0.00000000	      0.00000000	      0.00000000	      0.00000000	      0.00000729	      0.00000000	      0.00000000	      0.00000000	      0.00000000	      0.00000000	      0.02283614	      0.00000000	      0.11297310	      0.39619071
      0.00128156	      0.00000000	      0.00000000	      0.00000000	      0.00000000	      0.00002936	      0.00000000	      0.00000000	      0.00000000	      0.00000000	      0.00000000	      0.04609769	      0.00000000	      0.16483885	      0.39613729
      0.00206652	      0.00000000	      0.00000000	      0.00000000	      0.00000000	      0.00007690	      0.00000000	      0.00000000	      0.00000000	      0.00000000	      0.00000000	      0.07510905	      0.00000000	      0.21846894	      0.39606043
      0.00304719	      0.00000000	      0.00000000	      0.00000000	      0.00000000	      0.00016856	      0.00000000	      0.00000000	      0.00000000	      0.00000000	      0.00000000	      0.11191330	      0.00000000	      0.27494745	      0.39594520
      0.00426391	      0.00000000	      0.00000000	      0.00000000	      0.00000000	      0.00033277	      0.00000000	      0.00000000	      0.00000000	      0.00000000	      0.00000000	      0.15806301	      0.00000000	      0.33376192	      0.39576746
      0.00576804	      0.00000000	      0.00000000	      0.00000000	      0.00000000	      0.00061358	      0.00000000	      0.00000000	      0.00000000	      0.00000000	      0.00000000	      0.21532240	      0.00000000	      0.39446246	      0.39548728
      0.00762120	      0.00000000	      0.00000000	      0.00000000	      0.00000000	      0.00107773	      0.00000000	      0.00000000	      0.00000000	      0.00000000	      0.00000000	      0.28547879	      0.00000000	      0.45647412	      0.39504231
      0.00989862	      0.00000000	      0.00000000	      0.00000000	      0.00000000	      0.00182475	      0.00000000	      0.00000000	      0.00000000	      0.00000000	      0.00000000	      0.37020443	      0.00000000	      0.51912244	      0.39433873
      0.01199778	      0.00000000	      0.00000000	      0.00000000	      0.00000000	      0.00268196	      0.00000000	      0.00000000	      0.00000000	      0.00000000	      0.00000000	      0.44609695	      0.00000000	      0.56728458	      0.39353133
      0.01342148	      0.00000000	      0.00000000	      0.00000000	      0.00000000	      0.00335285	      0.00000000	      0.00000000	      0.00000000	      0.00000000	      0.00000000	      0.49616738	      0.00000000	      0.59591096	      0.39290538
      0.01484518	      0.00000000	      0.00000000	      0.00000000	      0.00000000	      0.00409408	      0.00000000	      0.00000000	      0.00000000	      0.00000000	      0.00000000	      0.54486381	      0.00000000	      0.62184686	      0.39220733
      0.01649064	      0.00000000	      0.00000000	      0.00000000	      0.00000000	      0.00503576	      0.00000000	      0.00000000	      0.00000000	      0.00000000	      0.00000000	      0.59940970	      0.00000000	      0.64895887	      0.39132532
      0.01780384	      0.00000000	      0.00000000	      0.00000000	      0.00000000	      0.00585064	      0.00000000	      0.00000000	      0.00000000	      0.00000000	      0.00000000	      0.64142036	      0.00000000	      0.66868502	      0.39055319
      0.01911704	      0.00000000	      0.00000000	      0.00000000	      0.00000000	      0.00671983	      0.00000000	      0.00000000	      0.00000000	      0.00000000	      0.00000000	      0.68214384	      0.00000000	      0.68692082	      0.38973750
      0.02043024	      0.00000000	      0.00000000	      0.00000000	      0.00000000	      0.00764157	      0.00000000	      0.00000000	      0.00000000	      0.00000000	      0.00000000	      0.72139294	      0.00000000	      0.70382418	      0.38886154
      0.02174344	      0.00000000	      0.00000000	      0.00000000	      0.00000000	      0.00861392	      0.00000000	      0.00000000	      0.00000000	      0.00000000	      0.00000000	      0.75928890	      0.00000000	      0.71952935	      0.38794769
      0.02283130	      0.00000000	      0.00000000	      0.00000000	      0.00000000	      0.00945643	      0.00000000	      0.00000000	      0.00000000	      0.00000000	      0.00000000	      0.78948549	      0.00000000	      0.73171479	      0.38714251
      0.02391915	      0.00000000	      0.00000000	      0.00000000	      0.00000000	      0.01033127	      0.00000000	      0.00000000	      0.00000000	      0.00000000	      0.00000000	      0.81873279	      0.00000000	      0.74321456	      0.38631504
      0.02500700	      0.00000000	      0.00000000	      0.00000000	      0.00000000	      0.01123736	      0.00000000	      0.00000000	      0.00000000	      0.00000000	      0.00000000	      0.84691577	      0.00000000	      0.75407977	      0.38545099
      0.02650902	      0.00000000	      0.00000000	      0.00000000	      0.00000000	      0.01253766	      0.00000000	      0.00000000	      0.00000000	      0.00000000	      0.00000000	      0.88419946	      0.00000000	      0.76812260	      0.38421770
      0.02742497	      0.00000000	      0.00000000	      0.00000000	      0.00000000	      0.01335753	      0.00000000	      0.00000000	      0.00000000	      0.00000000	      0.00000000	      0.90590428	      0.00000000	      0.77618079	      0.38342847
      0.02834091	      0.00000000	      0.00000000	      0.00000000	      0.00000000	      0.01419697	      0.00000000	      0.00000000	      0.00000000	      0.00000000	      0.00000000	      0.92693724	      0.00000000	      0.78388272	      0.38262771
